<svg width="76" height="87" viewBox="0 0 76 87" version="1.1" xmlns="http://www.w3.org/2000/svg" xmlns:xlink="http://www.w3.org/1999/xlink">
<title>noun_694252_cc</title>
<desc>Created using Figma</desc>
<g id="Canvas" transform="translate(32 -19)">
<g id="noun_694252_cc">
<g id="Vector">
<use xlink:href="#path0_fill" transform="translate(-31.975 19)" fill="#FFFFFF"/>
</g>
</g>
</g>
<defs>
<path id="path0_fill" d="M 46.975 26L 28.975 26C 28.375 26 27.975 25.6 27.975 25C 27.975 24.4 28.375 24 28.975 24L 46.975 24C 47.575 24 47.975 24.4 47.975 25C 47.975 25.6 47.575 26 46.975 26ZM 47.975 32C 47.975 31.4 47.575 31 46.975 31L 28.975 31C 28.375 31 27.975 31.4 27.975 32C 27.975 32.6 28.375 33 28.975 33L 46.975 33C 47.575 33 47.975 32.6 47.975 32ZM 47.975 39C 47.975 38.4 47.575 38 46.975 38L 28.975 38C 28.375 38 27.975 38.4 27.975 39C 27.975 39.6 28.375 40 28.975 40L 46.975 40C 47.575 40 47.975 39.6 47.975 39ZM 47.975 46C 47.975 45.4 47.575 45 46.975 45L 28.975 45C 28.375 45 27.975 45.4 27.975 46C 27.975 46.6 28.375 47 28.975 47L 46.975 47C 47.575 47 47.975 46.6 47.975 46ZM 47.975 53C 47.975 52.4 47.575 52 46.975 52L 28.975 52C 28.375 52 27.975 52.4 27.975 53C 27.975 53.6 28.375 54 28.975 54L 46.975 54C 47.575 54 47.975 53.6 47.975 53ZM 47.975 60C 47.975 59.4 47.575 59 46.975 59L 28.975 59C 28.375 59 27.975 59.4 27.975 60C 27.975 60.6 28.375 61 28.975 61L 46.975 61C 47.575 61 47.975 60.6 47.975 60ZM 47.975 67C 47.975 66.4 47.575 66 46.975 66L 28.975 66C 28.375 66 27.975 66.4 27.975 67C 27.975 67.6 28.375 68 28.975 68L 46.975 68C 47.575 68 47.975 67.6 47.975 67ZM 47.975 74C 47.975 73.4 47.575 73 46.975 73L 28.975 73C 28.375 73 27.975 73.4 27.975 74C 27.975 74.6 28.375 75 28.975 75L 46.975 75C 47.575 75 47.975 74.6 47.975 74ZM 74.975 85L 68.975 85L 68.975 45C 68.975 44.4 68.575 44 67.975 44L 64.975 44L 64.975 39C 64.975 38.4 64.575 38 63.975 38L 55.975 38L 55.975 16C 55.975 15.4 55.575 15 54.975 15L 48.975 15L 48.975 10C 48.975 9.4 48.575 9 47.975 9L 38.975 9L 38.975 1C 38.975 0.4 38.575 0 37.975 0C 37.375 0 36.975 0.4 36.975 1L 36.975 9L 27.975 9C 27.375 9 26.975 9.4 26.975 10L 26.975 15L 20.975 15C 20.375 15 19.975 15.4 19.975 16L 19.975 38L 11.975 38C 11.375 38 10.975 38.4 10.975 39L 10.975 44L 7.975 44C 7.375 44 6.975 44.4 6.975 45L 6.975 85L 0.975 85C -0.325 85 -0.325 87 0.975 87C 17.575 87 67.575 87 74.975 87C 76.275 87 76.275 85 74.975 85ZM 55.975 40L 62.975 40L 62.975 45L 55.975 45L 55.975 40ZM 28.975 11L 46.975 11L 46.975 16L 28.975 16L 28.975 11ZM 12.975 40L 19.975 40L 19.975 45L 12.975 45L 12.975 40ZM 8.975 85L 8.975 46C 13.475 46 13.975 46 19.975 46L 19.975 85L 8.975 85ZM 21.975 85C 21.975 70.5 21.975 31.4 21.975 17C 32.575 17 43.275 17 53.975 17C 53.975 51.6 53.975 50.6 53.975 85L 21.975 85ZM 55.975 85L 55.975 46C 61.975 46 62.475 46 66.975 46L 66.975 85L 55.975 85Z"/>
</defs>
</svg>
