<svg width="92" height="96" viewBox="0 0 92 96" version="1.1" xmlns="http://www.w3.org/2000/svg" xmlns:xlink="http://www.w3.org/1999/xlink">
<title>noun_1236201_cc</title>
<desc>Created using Figma</desc>
<g id="Canvas" transform="translate(-101 -49)">
<g id="noun_1236201_cc">
<g id="Vector">
<use xlink:href="#path0_fill" transform="translate(101.61 49)" fill="#FFFFFF"/>
</g>
</g>
</g>
<defs>
<path id="path0_fill" d="M 1.33514e-07 94.5022C 1.33514e-07 94.7674 0.105357 95.0217 0.292893 95.2093C 0.480429 95.3968 0.734784 95.5022 1 95.5022L 89.78 95.5022C 90.0452 95.5022 90.2996 95.3968 90.4871 95.2093C 90.6746 95.0217 90.78 94.7674 90.78 94.5022C 90.78 66.1822 64.88 58.7322 60.18 57.6222L 58.97 46.4522C 60.4203 44.313 61.4393 41.9115 61.97 39.3822C 63.3 38.7622 64.39 36.7622 65.39 33.1522C 66.39 29.5422 66.39 27.3422 65.31 26.0722C 64.9911 25.6823 64.568 25.391 64.09 25.2322C 64.21 24.7822 64.33 24.3022 64.44 23.7522C 65.58 16.9022 64.96 11.9122 62.6 8.92216C 61.7017 7.73394 60.4304 6.88174 58.99 6.50216C 57.7721 4.71476 56.1387 3.24952 54.23 2.23216C 51.1806 0.471516 47.6517 -0.277667 44.15 0.0921607C 42.7645 0.161904 41.3952 0.420976 40.08 0.862161C 38.5163 1.39623 37.0353 2.14687 35.68 3.09216C 34.0437 4.12139 32.545 5.35463 31.22 6.76216C 28.8189 9.11755 27.1221 12.0957 26.32 15.3622C 25.7039 18.131 25.7278 21.004 26.39 23.7622C 26.48 24.2722 26.59 24.7622 26.72 25.2222C 26.2548 25.3795 25.8427 25.6635 25.53 26.0422C 24.39 27.3122 24.39 29.6322 25.39 33.1522C 26.39 36.6722 27.45 38.7522 28.75 39.3822C 29.2866 41.9724 30.3262 44.4322 31.81 46.6222L 30.6 57.6222C 25.91 58.7622 1.33514e-07 66.1722 1.33514e-07 94.5022ZM 88.76 93.5022L 2.02 93.5022C 2.61 67.3322 26.24 60.6522 30.94 59.5822L 38.99 77.7622C 39.5302 79.0076 40.4253 80.0663 41.5635 80.8061C 42.7016 81.5459 44.0325 81.9341 45.39 81.9222C 46.7472 81.9328 48.0775 81.5441 49.2155 80.8044C 50.3534 80.0647 51.2487 79.0068 51.79 77.7622L 59.85 59.5822C 64.54 60.6522 88.18 67.3322 88.76 93.5022ZM 43.89 66.9622L 41.79 62.2522L 45.39 59.4022L 48.99 62.2522L 46.89 66.9622C 46.8335 67.0897 46.8043 67.2277 46.8043 67.3672C 46.8043 67.5067 46.8335 67.6446 46.89 67.7722L 50.45 75.8422L 49.96 76.9522C 49.5674 77.8365 48.9267 78.588 48.1155 79.1154C 47.3044 79.6429 46.3576 79.9236 45.39 79.9236C 44.4224 79.9236 43.4756 79.6429 42.6645 79.1154C 41.8533 78.588 41.2126 77.8365 40.82 76.9522L 40.32 75.8322L 43.89 67.8322C 43.9555 67.6965 43.9896 67.5478 43.9896 67.3972C 43.9896 67.2465 43.9555 67.0978 43.89 66.9622ZM 29.7 37.6022C 29.7 37.6022 28.65 37.3922 27.32 32.6022C 26.25 28.7922 26.75 27.6022 27.02 27.3222C 27.1046 27.2253 27.2119 27.1508 27.3323 27.1055C 27.4527 27.0601 27.5825 27.0452 27.71 27.0622L 27.91 27.0622C 28.0793 27.0782 28.2498 27.0508 28.4056 26.9825C 28.5613 26.9143 28.697 26.8075 28.8 26.6722C 28.91 26.5329 28.9809 26.3669 29.0055 26.1911C 29.0301 26.0154 29.0075 25.8363 28.94 25.6722C 28.6591 24.9164 28.4482 24.1365 28.31 23.3422C 27.7384 20.8613 27.7384 18.283 28.31 15.8022C 29.0321 12.8792 30.556 10.2159 32.71 8.11216C 33.9206 6.82898 35.288 5.70345 36.78 4.76216C 37.9902 3.91529 39.3131 3.24209 40.71 2.76216C 41.8637 2.37637 43.0649 2.15093 44.28 2.09216C 47.4049 1.74482 50.5588 2.40716 53.28 3.98216C 55.0134 4.87965 56.4769 6.22226 57.52 7.87216C 57.5987 8.02509 57.7155 8.15513 57.8592 8.24973C 58.0028 8.34432 58.1684 8.40027 58.34 8.41216C 59.4419 8.62725 60.4192 9.25728 61.07 10.1722C 62.44 11.9122 63.8 15.6222 62.51 23.4022C 62.3413 24.2044 62.114 24.9932 61.83 25.7622C 61.7754 25.9175 61.76 26.0838 61.7852 26.2465C 61.8103 26.4092 61.8752 26.5632 61.9741 26.6947C 62.0731 26.8263 62.2029 26.9314 62.3522 27.0007C 62.5015 27.0701 62.6657 27.1015 62.83 27.0922C 63.46 27.0422 63.66 27.2722 63.74 27.3522C 64.01 27.6722 64.51 28.8322 63.44 32.6122C 62.09 37.4022 61.05 37.6122 61.04 37.6122C 60.8128 37.6279 60.5977 37.7207 60.4304 37.8753C 60.2631 38.0298 60.1536 38.2369 60.12 38.4622C 59.39 43.4622 55.39 49.6922 49.24 51.9122C 46.729 52.817 43.981 52.817 41.47 51.9122C 35.39 49.7622 31.39 43.5222 30.62 38.4522C 30.5864 38.2269 30.4769 38.0198 30.3096 37.8653C 30.1423 37.7107 29.9272 37.6179 29.7 37.6022ZM 40.8 53.8122C 43.7475 54.8726 46.9725 54.8726 49.92 53.8122C 52.7281 52.759 55.23 51.0236 57.2 48.7622L 58.2 58.3022L 51.55 73.3722L 48.9 67.3722L 51.13 62.3722C 51.2204 62.1697 51.241 61.943 51.1885 61.7276C 51.136 61.5122 51.0134 61.3203 50.84 61.1822L 46.01 57.3522C 45.8335 57.2127 45.615 57.1368 45.39 57.1368C 45.165 57.1368 44.9465 57.2127 44.77 57.3522L 39.94 61.1822C 39.7666 61.3203 39.644 61.5122 39.5915 61.7276C 39.539 61.943 39.5596 62.1697 39.65 62.3722L 41.88 67.3722L 39.23 73.3722L 32.54 58.2822L 33.54 48.8922C 35.5055 51.1191 38.0032 52.8118 40.8 53.8122Z"/>
</defs>
</svg>
